<svg xmlns="http://www.w3.org/2000/svg" xmlns:xlink="http://www.w3.org/1999/xlink" version="1.1" x="0px" y="0px" viewBox="0 0 64 64" style="enable-background:new 0 0 64 64;" xml:space="preserve"><path d="M34.991,18.938c0.08,0.002,0.159,0.003,0.239,0.003c0.44,0,0.874-0.042,1.303-0.104c0.025,0.002,0.05,0.011,0.075,0.011  c0.062,0,0.125-0.006,0.188-0.018c0.201-0.038,0.391-0.107,0.588-0.158c0.2-0.049,0.4-0.098,0.596-0.16  c0.142-0.047,0.281-0.099,0.42-0.152c0.324-0.121,0.641-0.258,0.95-0.416c0.045-0.023,0.093-0.042,0.138-0.066  c0.364-0.194,0.714-0.419,1.053-0.663c0.075-0.054,0.149-0.11,0.223-0.166c0.331-0.253,0.653-0.522,0.954-0.822  c0.003-0.003,0.007-0.006,0.01-0.009c0.042-0.042,0.077-0.089,0.118-0.131c0.19-0.197,0.376-0.397,0.546-0.606  c0.018-0.023,0.034-0.048,0.052-0.071c0.615-0.771,1.09-1.614,1.428-2.502c0.003-0.007,0.006-0.013,0.009-0.02  c0.001-0.004,0.001-0.008,0.002-0.011c1.288-3.413,0.541-7.468-2.245-10.557c-0.184-0.204-0.442-0.323-0.717-0.33  c-0.236-0.009-0.538,0.098-0.732,0.292L28.168,14.303c-0.376,0.376-0.392,0.981-0.035,1.376  C29.967,17.714,32.402,18.871,34.991,18.938z M36.322,10.682l5.297,2.354c-0.003,0.005-0.005,0.011-0.008,0.016  c-0.156,0.292-0.335,0.569-0.528,0.837c-0.039,0.055-0.08,0.108-0.121,0.162c-0.2,0.263-0.413,0.516-0.648,0.752  c-0.194,0.194-0.399,0.374-0.611,0.544c-0.065,0.052-0.133,0.097-0.198,0.147c-0.15,0.112-0.301,0.222-0.458,0.322  c-0.089,0.057-0.179,0.108-0.27,0.161c-0.132,0.077-0.267,0.15-0.403,0.219c-0.124,0.062-0.25,0.121-0.377,0.176  c-0.083,0.036-0.167,0.068-0.251,0.101c-0.115,0.044-0.231,0.083-0.348,0.121L36.322,10.682z M40.817,4.482  c1.478,2.05,1.977,4.475,1.494,6.673l-5.655-2.513L40.817,4.482z M34.34,10.959l1.085,5.969c-0.127,0.004-0.254,0.013-0.382,0.01  c-1.737-0.045-3.395-0.723-4.753-1.93L34.34,10.959z"/><path d="M20.893,31.065c0.003,0.007,0.001,0.015,0.004,0.022c0.007,0.019,0.017,0.036,0.024,0.055  c0.096,0.259,0.205,0.513,0.326,0.764c0.02,0.041,0.037,0.083,0.057,0.124c0.117,0.235,0.248,0.464,0.387,0.689  c0.032,0.052,0.06,0.106,0.093,0.158c0.131,0.203,0.276,0.4,0.425,0.594c0.047,0.061,0.088,0.126,0.136,0.186  c0.179,0.221,0.371,0.433,0.574,0.64c0.021,0.022,0.039,0.046,0.061,0.068c0.006,0.006,0.014,0.011,0.02,0.018  c0.24,0.239,0.494,0.459,0.756,0.667c0.062,0.049,0.127,0.094,0.19,0.141c0.223,0.168,0.451,0.325,0.687,0.47  c0.062,0.038,0.123,0.075,0.186,0.111c0.265,0.155,0.537,0.296,0.816,0.423c0.035,0.016,0.068,0.033,0.103,0.049  C26.859,36.735,28.08,37,29.343,37c2.404,0,4.665-0.936,6.364-2.636c0.391-0.391,0.391-1.023,0-1.414l-5.344-5.344  c-0.001-0.001-0.001-0.001-0.001-0.002l-0.582-0.582l-5.386-5.386c-0.391-0.391-1.023-0.391-1.414,0  C20.434,24.182,19.745,27.883,20.893,31.065z M26.432,34.361c-0.016-0.007-0.032-0.015-0.048-0.023  c-0.352-0.164-0.69-0.356-1.01-0.576c-0.023-0.016-0.044-0.034-0.067-0.05c-0.324-0.229-0.632-0.481-0.913-0.763v0  c-0.004-0.004-0.008-0.009-0.012-0.014c-0.277-0.278-0.518-0.578-0.738-0.888c-0.086-0.122-0.16-0.254-0.239-0.382  c-0.08-0.13-0.152-0.264-0.223-0.399l5.116-2.132L26.432,34.361z M29.343,35c-0.334,0-0.663-0.031-0.988-0.077l1.71-4.788  l3.472,3.472C32.332,34.511,30.875,35,29.343,35z M23.737,23.808l3.573,3.573l-4.806,2.003  C22.121,27.473,22.519,25.435,23.737,23.808z"/><path d="M61,44H12.562c0.069-0.492,0.183-1.004,0.376-1.531c0.651-1.775,1.806-2.906,2.659-3.542C15.851,38.738,16,38.44,16,38.125  c0-0.71-0.194-1.382-0.525-1.981L18.6,33.8L17.4,32.2l-3.305,2.479c-0.956-0.616-2.102-0.833-3.218-0.555l-0.119,0.03  c-0.144,0.036-0.277,0.103-0.392,0.197c-1.449,1.188-2.587,2.705-3.289,4.389C6.276,40.66,6.154,42.507,6.274,44H3  c-0.553,0-1,0.448-1,1c0,9.374,7.626,17,17,17h26c9.374,0,17-7.626,17-17C62,44.448,61.553,44,61,44z M8.923,39.509  c0.549-1.315,1.424-2.509,2.539-3.467c0.605-0.123,1.229,0.024,1.722,0.409c0.399,0.312,0.667,0.744,0.77,1.227  c-1,0.839-2.182,2.165-2.892,4.102c-0.42,1.144-0.57,2.229-0.58,3.207c0,0.001-0.001,0.002-0.001,0.003  c0,0.007,0.001,0.013,0.001,0.02c-0.003,0.338,0.012,0.661,0.04,0.969c0.003,0.03,0.006,0.059,0.009,0.088  c0.028,0.279,0.064,0.544,0.109,0.794c0.007,0.041,0.014,0.082,0.022,0.123c0.045,0.233,0.094,0.449,0.147,0.652  c0.01,0.038,0.019,0.078,0.029,0.115c0.062,0.225,0.126,0.434,0.188,0.615c-0.476-0.233-0.913-0.544-1.288-0.918  c-0.669-0.67-1.118-1.487-1.297-2.366l-0.026-0.148c-0.001-0.003-0.018-0.104-0.018-0.107c0-0.003-0.002-0.005-0.003-0.008  C8.154,43.467,8.081,41.531,8.923,39.509z M45,60H19c-7.935,0-14.45-6.194-14.967-14h2.575c0.024,0.081,0.06,0.159,0.087,0.239  c0.037,0.111,0.076,0.22,0.12,0.328c0.07,0.176,0.149,0.347,0.234,0.516c0.052,0.104,0.102,0.208,0.16,0.31  c0.101,0.177,0.215,0.348,0.333,0.517c0.058,0.083,0.109,0.168,0.171,0.249c0.187,0.245,0.388,0.481,0.611,0.704  c0.744,0.743,1.664,1.312,2.661,1.644l1.699,0.566c0.101,0.034,0.204,0.049,0.306,0.05c0.003,0,0.007,0.002,0.01,0.002  c0.011,0,0.02-0.006,0.031-0.007c0.115-0.004,0.225-0.03,0.331-0.071c0.03-0.012,0.058-0.023,0.087-0.038  c0.114-0.057,0.221-0.129,0.307-0.229c0.265-0.306,0.319-0.741,0.139-1.103l-0.973-1.945c-0.034-0.096-0.071-0.212-0.108-0.339  c-0.016-0.054-0.031-0.118-0.047-0.177c-0.022-0.083-0.045-0.166-0.066-0.258c-0.018-0.075-0.034-0.157-0.05-0.238  c-0.019-0.091-0.036-0.184-0.053-0.281c-0.015-0.091-0.029-0.187-0.042-0.284c-0.007-0.05-0.011-0.104-0.017-0.155h47.428  C59.45,53.806,52.935,60,45,60z"/><path d="M58.634,4.351c-0.114-0.094-0.248-0.161-0.392-0.197l-0.119-0.03c-1.073-0.268-2.169-0.076-3.102,0.483l-2.314-2.314  l-1.414,1.414l2.311,2.311C53.226,6.649,53,7.364,53,8.125c0,0.316,0.149,0.613,0.402,0.802c0.854,0.636,2.008,1.767,2.659,3.542  c0.851,2.322,0.312,4.417,0.017,5.264l-0.973,1.945c-0.181,0.362-0.126,0.797,0.139,1.103c0.193,0.223,0.471,0.345,0.756,0.345  c0.105,0,0.213-0.017,0.316-0.051l1.699-0.566c0.997-0.333,1.917-0.901,2.661-1.644c0,0,0,0,0,0  c0.948-0.948,1.585-2.116,1.842-3.378c0.332-1.629,0.498-4.122-0.596-6.745C61.221,7.056,60.083,5.539,58.634,4.351z M60.56,15.085  c-0.179,0.876-0.627,1.693-1.297,2.363c-0.375,0.374-0.812,0.686-1.288,0.918c0.447-1.29,0.994-3.777-0.036-6.586  c-0.71-1.938-1.892-3.263-2.892-4.102c0.103-0.483,0.37-0.916,0.77-1.227c0.493-0.384,1.117-0.53,1.722-0.409  c1.115,0.958,1.99,2.152,2.539,3.467C60.975,11.664,60.835,13.73,60.56,15.085z"/><path d="M57,48h-2c0,2.757-2.243,5-5,5v2C53.859,55,57,51.86,57,48z"/><path d="M46.91,22.223c-0.026,0.005-0.051,0.014-0.076,0.02c-0.315,0.07-0.625,0.154-0.928,0.253  c-0.031,0.01-0.061,0.023-0.092,0.034c-0.296,0.1-0.586,0.212-0.869,0.338c-0.044,0.019-0.086,0.042-0.129,0.062  c-0.266,0.123-0.527,0.256-0.78,0.401c-0.057,0.033-0.111,0.068-0.168,0.102c-0.236,0.142-0.466,0.291-0.688,0.451  c-0.063,0.045-0.125,0.093-0.187,0.14c-0.212,0.16-0.417,0.327-0.615,0.503c-0.061,0.055-0.122,0.11-0.182,0.166  c-0.197,0.184-0.386,0.375-0.568,0.574c-0.031,0.034-0.065,0.063-0.096,0.097c-0.006,0.007-0.008,0.017-0.014,0.024  C39.957,27.152,39,29.463,39,32c0,0.322,0.018,0.643,0.049,0.961c0.013,0.14,0.038,0.276,0.057,0.415  c0.024,0.172,0.046,0.344,0.079,0.514c0.033,0.173,0.077,0.342,0.119,0.512c0.032,0.13,0.062,0.259,0.1,0.387  c0.054,0.185,0.117,0.366,0.181,0.547c0.038,0.108,0.076,0.216,0.118,0.322c0.074,0.188,0.156,0.373,0.241,0.555  c0.044,0.094,0.088,0.188,0.135,0.281c0.094,0.187,0.194,0.369,0.3,0.549c0.049,0.084,0.1,0.167,0.152,0.25  c0.114,0.181,0.232,0.359,0.357,0.532c0.054,0.075,0.11,0.148,0.166,0.222c0.133,0.175,0.27,0.345,0.414,0.511  c0.022,0.026,0.042,0.054,0.064,0.079c0.007,0.007,0.016,0.01,0.023,0.017C43.389,40.702,46.042,42,49,42s5.611-1.298,7.444-3.346  c0.007-0.007,0.016-0.009,0.023-0.017c0.023-0.026,0.042-0.054,0.064-0.079c0.144-0.165,0.281-0.336,0.414-0.511  c0.056-0.074,0.112-0.147,0.166-0.222c0.125-0.173,0.243-0.351,0.357-0.532c0.052-0.083,0.103-0.166,0.152-0.25  c0.106-0.18,0.206-0.362,0.3-0.549c0.047-0.092,0.091-0.186,0.135-0.279c0.086-0.183,0.167-0.368,0.242-0.557  c0.042-0.106,0.079-0.214,0.118-0.321c0.064-0.181,0.127-0.362,0.181-0.548c0.037-0.128,0.068-0.258,0.1-0.387  c0.042-0.17,0.086-0.339,0.119-0.512c0.033-0.17,0.055-0.342,0.079-0.514c0.019-0.138,0.044-0.275,0.057-0.415  C58.982,32.643,59,32.322,59,32c0-2.537-0.957-4.848-2.519-6.613c-0.006-0.007-0.008-0.017-0.014-0.024  c-0.03-0.034-0.065-0.063-0.096-0.097c-0.182-0.199-0.37-0.39-0.568-0.574c-0.06-0.056-0.121-0.111-0.182-0.166  c-0.198-0.176-0.403-0.343-0.615-0.503c-0.062-0.047-0.124-0.094-0.187-0.14c-0.223-0.16-0.452-0.309-0.688-0.451  c-0.056-0.034-0.111-0.069-0.168-0.102c-0.253-0.146-0.514-0.278-0.78-0.402c-0.043-0.02-0.085-0.042-0.128-0.062  c-0.283-0.126-0.573-0.238-0.869-0.338c-0.031-0.01-0.06-0.023-0.091-0.034c-0.303-0.099-0.613-0.183-0.928-0.253  c-0.026-0.006-0.051-0.014-0.076-0.02c-0.307-0.066-0.62-0.115-0.937-0.151c-0.034-0.004-0.067-0.012-0.101-0.015  C49.706,22.02,49.355,22,49,22s-0.706,0.02-1.052,0.056c-0.034,0.004-0.067,0.011-0.101,0.015  C47.531,22.108,47.218,22.158,46.91,22.223z M44.238,25.587c0.035-0.026,0.069-0.053,0.104-0.078c0.158-0.114,0.32-0.22,0.485-0.321  c0.044-0.027,0.089-0.055,0.134-0.081c0.161-0.095,0.326-0.184,0.493-0.267c0.054-0.027,0.108-0.053,0.162-0.078  c0.163-0.076,0.328-0.148,0.495-0.213c0.066-0.026,0.134-0.049,0.201-0.074c0.159-0.057,0.32-0.111,0.482-0.158  c0.087-0.025,0.175-0.046,0.263-0.068c0.147-0.037,0.295-0.074,0.445-0.103c0.125-0.024,0.253-0.04,0.38-0.058  c0.118-0.017,0.235-0.037,0.355-0.049C48.488,24.015,48.742,24,49,24s0.512,0.015,0.764,0.039c0.119,0.012,0.237,0.032,0.355,0.049  c0.127,0.018,0.255,0.034,0.38,0.058c0.15,0.029,0.297,0.066,0.445,0.103c0.088,0.022,0.176,0.043,0.263,0.068  c0.163,0.047,0.323,0.101,0.482,0.158c0.067,0.024,0.134,0.048,0.201,0.074c0.167,0.065,0.332,0.137,0.495,0.213  c0.054,0.026,0.108,0.052,0.162,0.078c0.167,0.083,0.332,0.172,0.493,0.267c0.045,0.026,0.089,0.054,0.134,0.081  c0.165,0.102,0.327,0.208,0.485,0.321c0.035,0.025,0.069,0.052,0.104,0.078c0.163,0.121,0.323,0.247,0.477,0.382  c0.007,0.006,0.013,0.012,0.02,0.018l-3.814,3.39c-0.024-0.013-0.051-0.018-0.075-0.03c-0.165-0.086-0.338-0.155-0.52-0.209  c-0.052-0.016-0.101-0.035-0.154-0.048C49.473,29.036,49.241,29,49,29s-0.473,0.036-0.697,0.09  c-0.053,0.013-0.102,0.032-0.154,0.048c-0.181,0.054-0.354,0.123-0.519,0.209c-0.024,0.013-0.051,0.017-0.075,0.03l-3.814-3.39  c0.007-0.006,0.013-0.012,0.02-0.018C43.915,25.835,44.075,25.709,44.238,25.587z M48.17,32.525C48.082,32.392,48,32.227,48,32  c0-0.259,0.105-0.49,0.267-0.668c0.019-0.021,0.045-0.045,0.071-0.069c0.071-0.063,0.149-0.117,0.235-0.159  c0.026-0.013,0.055-0.023,0.083-0.035C48.765,31.03,48.878,31,49,31s0.235,0.03,0.343,0.069c0.028,0.011,0.057,0.022,0.083,0.035  c0.086,0.041,0.165,0.096,0.235,0.159c0.026,0.024,0.052,0.048,0.071,0.069C49.895,31.51,50,31.741,50,32  c0,0.227-0.082,0.392-0.17,0.525C49.652,32.804,49.355,33,49,33S48.348,32.804,48.17,32.525z M42.407,27.478l3.817,3.393  C46.082,31.22,46,31.6,46,32c0,0.197,0.02,0.392,0.059,0.583c0.037,0.189,0.094,0.371,0.166,0.546l-3.815,3.391  c-0.218-0.317-0.408-0.649-0.578-0.99c-0.017-0.035-0.034-0.07-0.051-0.106c-0.319-0.668-0.54-1.378-0.663-2.11  c-0.012-0.075-0.024-0.15-0.035-0.226C41.033,32.729,41,32.366,41,32C41,30.322,41.521,28.766,42.407,27.478z M43.74,38.013  l3.821-3.396C47.991,34.853,48.476,35,49,35s1.009-0.147,1.438-0.384l3.821,3.396C52.852,39.246,51.014,40,49,40  S45.148,39.246,43.74,38.013z M56.917,33.088c-0.01,0.076-0.022,0.152-0.035,0.227c-0.123,0.731-0.344,1.44-0.663,2.108  c-0.017,0.036-0.034,0.071-0.052,0.107c-0.169,0.341-0.359,0.674-0.577,0.99l-3.815-3.391c0.071-0.175,0.128-0.357,0.166-0.546  C51.98,32.392,52,32.197,52,32c0-0.4-0.082-0.78-0.224-1.129l3.817-3.393C56.479,28.766,57,30.322,57,32  C57,32.366,56.967,32.729,56.917,33.088z"/><rect x="48" y="26" width="2" height="2"/><rect x="53" y="31" width="2" height="2"/><rect x="48" y="36" width="2" height="2"/><rect x="43" y="31" width="2" height="2"/><path d="M2.049,12.961c0.013,0.14,0.038,0.276,0.057,0.415c0.024,0.172,0.046,0.344,0.079,0.514  c0.033,0.173,0.077,0.342,0.119,0.512c0.032,0.13,0.062,0.259,0.1,0.387c0.054,0.185,0.117,0.366,0.181,0.547  c0.038,0.108,0.076,0.216,0.118,0.322c0.074,0.188,0.156,0.373,0.241,0.555c0.044,0.094,0.088,0.188,0.135,0.281  c0.094,0.187,0.194,0.369,0.3,0.549c0.049,0.084,0.1,0.167,0.152,0.25c0.114,0.181,0.232,0.359,0.357,0.532  c0.054,0.075,0.11,0.148,0.166,0.222c0.133,0.175,0.27,0.345,0.414,0.511c0.022,0.026,0.042,0.054,0.064,0.079  c0.007,0.007,0.016,0.01,0.023,0.017C6.389,20.702,9.042,22,12,22s5.611-1.298,7.444-3.346c0.007-0.007,0.016-0.009,0.023-0.017  c0.023-0.026,0.042-0.054,0.064-0.079c0.144-0.165,0.281-0.336,0.414-0.511c0.056-0.074,0.112-0.147,0.166-0.222  c0.125-0.173,0.243-0.351,0.357-0.532c0.052-0.083,0.103-0.166,0.152-0.25c0.106-0.18,0.206-0.362,0.3-0.549  c0.047-0.092,0.091-0.186,0.135-0.279c0.086-0.183,0.167-0.368,0.242-0.557c0.042-0.106,0.079-0.214,0.118-0.321  c0.064-0.181,0.127-0.362,0.181-0.548c0.037-0.128,0.068-0.258,0.1-0.387c0.042-0.17,0.086-0.339,0.119-0.512  c0.033-0.17,0.055-0.342,0.079-0.514c0.019-0.138,0.044-0.275,0.057-0.415C21.982,12.643,22,12.322,22,12  c0-2.537-0.957-4.848-2.519-6.613c-0.006-0.007-0.008-0.017-0.014-0.024c-0.03-0.034-0.065-0.063-0.096-0.097  c-0.182-0.199-0.37-0.39-0.568-0.574c-0.06-0.056-0.121-0.111-0.182-0.166c-0.198-0.176-0.403-0.343-0.615-0.503  c-0.062-0.047-0.124-0.094-0.187-0.14c-0.223-0.16-0.452-0.309-0.688-0.451c-0.056-0.034-0.111-0.069-0.168-0.102  c-0.253-0.146-0.514-0.278-0.78-0.402c-0.043-0.02-0.085-0.042-0.128-0.062c-0.283-0.126-0.573-0.238-0.869-0.338  c-0.031-0.01-0.06-0.023-0.091-0.034c-0.303-0.099-0.613-0.183-0.928-0.253c-0.026-0.006-0.051-0.014-0.076-0.02  c-0.307-0.066-0.62-0.115-0.937-0.151c-0.034-0.004-0.067-0.012-0.101-0.015C12.706,2.02,12.355,2,12,2s-0.706,0.02-1.052,0.056  c-0.034,0.004-0.067,0.011-0.101,0.015c-0.317,0.037-0.63,0.086-0.937,0.151C9.885,2.229,9.86,2.237,9.834,2.243  c-0.315,0.07-0.625,0.154-0.928,0.253c-0.031,0.01-0.061,0.023-0.092,0.034c-0.296,0.1-0.586,0.212-0.869,0.338  C7.902,2.887,7.86,2.909,7.817,2.929C7.55,3.053,7.29,3.185,7.037,3.331C6.98,3.363,6.926,3.399,6.869,3.433  C6.634,3.574,6.404,3.723,6.181,3.883c-0.063,0.045-0.125,0.093-0.187,0.14C5.782,4.183,5.577,4.35,5.379,4.526  c-0.061,0.055-0.122,0.11-0.182,0.166C4.999,4.876,4.811,5.067,4.629,5.266C4.598,5.3,4.564,5.329,4.533,5.363  C4.527,5.37,4.525,5.38,4.519,5.387C2.957,7.152,2,9.463,2,12C2,12.322,2.018,12.643,2.049,12.961z M6.74,18.013l3.821-3.396  C10.991,14.853,11.476,15,12,15s1.009-0.147,1.438-0.384l3.821,3.396C15.852,19.246,14.014,20,12,20S8.148,19.246,6.74,18.013z   M6.761,5.969c0.154-0.134,0.314-0.26,0.477-0.382c0.035-0.026,0.069-0.053,0.104-0.078c0.158-0.114,0.32-0.22,0.485-0.321  C7.871,5.161,7.915,5.133,7.96,5.107C8.122,5.012,8.286,4.923,8.454,4.84c0.054-0.027,0.108-0.053,0.162-0.078  c0.163-0.076,0.328-0.148,0.495-0.213c0.066-0.026,0.134-0.049,0.201-0.074c0.159-0.057,0.32-0.111,0.482-0.158  c0.087-0.025,0.175-0.046,0.263-0.068c0.147-0.037,0.295-0.074,0.445-0.103c0.125-0.024,0.253-0.04,0.38-0.058  c0.118-0.017,0.235-0.037,0.355-0.049C11.488,4.015,11.742,4,12,4s0.512,0.015,0.764,0.039c0.119,0.012,0.237,0.032,0.355,0.049  c0.127,0.018,0.255,0.034,0.38,0.058c0.15,0.029,0.297,0.066,0.445,0.103c0.088,0.022,0.176,0.043,0.263,0.068  c0.163,0.047,0.323,0.101,0.482,0.158c0.067,0.024,0.134,0.048,0.201,0.074c0.167,0.065,0.332,0.137,0.495,0.213  c0.054,0.026,0.108,0.052,0.162,0.078c0.167,0.083,0.332,0.172,0.493,0.267c0.045,0.026,0.089,0.054,0.134,0.081  c0.165,0.102,0.327,0.208,0.485,0.321c0.035,0.025,0.069,0.052,0.104,0.078c0.163,0.121,0.323,0.247,0.477,0.382  c0.007,0.006,0.013,0.012,0.02,0.018l-3.814,3.39c-0.024-0.013-0.051-0.018-0.075-0.03c-0.165-0.086-0.338-0.155-0.52-0.209  c-0.052-0.016-0.101-0.035-0.154-0.048C12.473,9.036,12.241,9,12,9s-0.473,0.036-0.697,0.09c-0.053,0.013-0.102,0.032-0.154,0.048  c-0.181,0.054-0.354,0.123-0.519,0.209c-0.024,0.013-0.051,0.017-0.075,0.03l-3.814-3.39C6.747,5.981,6.754,5.975,6.761,5.969z   M11.17,12.525C11.082,12.392,11,12.227,11,12c0-0.259,0.105-0.49,0.267-0.668c0.019-0.021,0.045-0.045,0.071-0.069  c0.071-0.063,0.149-0.117,0.235-0.159c0.026-0.013,0.055-0.023,0.083-0.035C11.765,11.03,11.878,11,12,11s0.235,0.03,0.343,0.069  c0.028,0.011,0.057,0.022,0.083,0.035c0.086,0.041,0.165,0.096,0.235,0.159c0.026,0.024,0.052,0.048,0.071,0.069  C12.895,11.51,13,11.741,13,12c0,0.227-0.082,0.392-0.17,0.525C12.652,12.804,12.355,13,12,13S11.348,12.804,11.17,12.525z   M19.917,13.088c-0.01,0.076-0.022,0.152-0.035,0.227c-0.123,0.731-0.344,1.44-0.663,2.108c-0.017,0.036-0.034,0.071-0.052,0.107  c-0.169,0.341-0.359,0.674-0.577,0.99l-3.815-3.391c0.071-0.175,0.128-0.357,0.166-0.546C14.98,12.392,15,12.197,15,12  c0-0.4-0.082-0.78-0.224-1.129l3.817-3.393C19.479,8.766,20,10.322,20,12C20,12.366,19.967,12.729,19.917,13.088z M5.407,7.478  l3.817,3.393C9.082,11.22,9,11.6,9,12c0,0.197,0.02,0.392,0.059,0.583c0.037,0.189,0.094,0.371,0.166,0.546L5.409,16.52  c-0.218-0.317-0.408-0.649-0.578-0.99c-0.017-0.035-0.034-0.07-0.051-0.106c-0.319-0.668-0.54-1.378-0.663-2.11  c-0.012-0.075-0.024-0.15-0.035-0.226C4.033,12.729,4,12.366,4,12C4,10.322,4.521,8.766,5.407,7.478z"/><rect x="11" y="6" width="2" height="2"/><rect x="16" y="11" width="2" height="2"/><rect x="11" y="16" width="2" height="2"/></svg>